<!-- 100x100 "pixels" so each pixel is 1% of the size.
     (but it'll all be scaled, so doesn't really matter.) -->

<svg width="100" height="100">
    <style>
	svg {
	    stroke: black;
	    fill: none;
	    stroke-width: 5;
	    stroke-linecap: round;
	}
    </style>

    <path d="
	    M 15 5
	    h 10
	    m -5 0
	    v 40
	    m -5 0
	    h 10
	    m -5 -22
	    a 15 18 0 0 1 30 0
	    v 22
	    m -5 0
	    h 10

	    M 80 5
	    a 5 5 0 1 0 0.1 0
	    m -4.1 20
	    h 5
	    v 20
	    a 5 5 0 0 1 -10 0

	    M 15 70
	    a 15 10 0 0 1 35 0
	    v 10
	    a 18 11 -20 1 1 0 -1
	    v 14
	    h 5

	    M 60 55
	    h 5
	    v 30
	    a 12 15 40 1 0 0 -5
	" />
</svg>
